{"title":"Frozen.Fever.2015.1080p.Bluray.X264.DTS-EVO","uid":12197690,"size":1234798219,"categoryP":"video","categoryS":"hd___movies","magnet":"?xt=urn:btih:1b966a6e37272da2c55af9f71b66f43e7fcfceaa&amp;dn=Frozen.Fever.2015.1080p.Bluray.X264.DTS-EVO&amp;tr=udp%3A%2F%2Ftracker.openbittorrent.com%3A80&amp;tr=udp%3A%2F%2Fopen.demonii.com%3A1337&amp;tr=udp%3A%2F%2Ftracker.coppersurfer.tk%3A6969&amp;tr=udp%3A%2F%2Fexodus.desync.com%3A6969","seeders":7,"leechers":1,"uploader":null,"files":1,"time":1438775950,"description":"General\nUnique ID                      : 241546120\nComplete name                  : Frozen.Fever.2015.1080p.Bluray.X264.DTS-EVO.mkv\nFormat                         : Matroska\nFormat version                 : Version 4 / Version 2\nFile size                      : 1.15 GiB\nDuration                       : 7mn 57s\nOverall bit rate               : 20.7 Mbps\nMovie name                     : EVO\nEncoded date                   : UTC 2015-07-31 10:39:31\nWriting application            : mkvmerge v6.7.0 ('Back to the Ground') 64bit built on Jan  8 2014 15:10:52\nWriting library                : libebml v1.3.0 + libmatroska v1.4.1\n\nVideo\nID                             : 2\nFormat                         : AVC\nFormat/Info                    : Advanced Video Codec\nFormat profile                 : &lt;a class=&quot;__cf_email__&quot; href=&quot;/cdn-cgi/l/email-protection&quot; data-cfemail=&quot;450d2c222d0509716b74&quot;&gt;[email&amp;#160;protected]&lt;/a&gt;&lt;script data-cfhash='f9e31' type=&quot;text/javascript&quot;&gt;\n/* &lt;![CDATA[ */!function(){try{var t=&quot;currentScript&quot;in document?document.currentScript:function(){for(var t=document.getElementsByTagName(&quot;script&quot;),e=t.length;e--;)if(t[e].getAttribute(&quot;data-cfhash&quot;))return t[e]}();if(t&amp;&amp;t.previousSibling){var e,r,n,i,c=t.previousSibling,a=c.getAttribute(&quot;data-cfemail&quot;);if(a){for(e=&quot;&quot;,r=parseInt(a.substr(0,2),16),n=2;a.length-n;n+=2)i=parseInt(a.substr(n,2),16)^r,e+=String.fromCharCode(i);e=document.createTextNode(e),c.parentNode.replaceChild(e,c)}t.parentNode.removeChild(t);}}catch(u){}}()/* ]]&gt; */&lt;/script&gt;\nFormat settings, CABAC         : Yes\nFormat settings, ReFrames      : 2 frames\nCodec ID                       : V_MPEG4/ISO/AVC\nDuration                       : 7mn 57s\nBit rate                       : 18.8 Mbps\nWidth                          : 1 920 pixels\nHeight                         : 856 pixels\nDisplay aspect ratio           : 2.25:1\nFrame rate mode                : Constant\nFrame rate                     : 23.976 fps\nColor space                    : YUV\nChroma subsampling             : 4:2:0\nBit depth                      : 8 bits\nScan type                      : Progressive\nBits/(Pixel*Frame)             : 0.476\nStream size                    : 1.04 GiB (91%)\nWriting library                : x264 core\nDefault                        : Yes\nForced                         : No\nColor range                    : Limited\nColor primaries                : BT.709\nTransfer characteristics       : BT.709\nMatrix coefficients            : BT.709\n\nAudio\nID                             : 1\nFormat                         : DTS\nFormat/Info                    : Digital Theater Systems\nMode                           : 16\nFormat settings, Endianness    : Big\nCodec ID                       : A_DTS\nDuration                       : 7mn 57s\nBit rate mode                  : Constant\nBit rate                       : 1 509 Kbps\nChannel(s)                     : 6 channels\nChannel positions              : Front: L C R, Side: L R, LFE\nSampling rate                  : 48.0 KHz\nBit depth                      : 24 bits\nCompression mode               : Lossy\nStream size                    : 85.9 MiB (7%)\nLanguage                       : English\nDefault                        : Yes\nForced                         : No\n\nMenu\n00:00:00.000                   : en:(01)00:00:00:000\n00:07:57.476                   : en:(02)00:07:57:476","torrent":{"xt":"urn:btih:1b966a6e37272da2c55af9f71b66f43e7fcfceaa","amp;dn":"Frozen.Fever.2015.1080p.Bluray.X264.DTS-EVO","amp;tr":["udp%3A%2F%2Ftracker.openbittorrent.com%3A80","udp%3A%2F%2Fopen.demonii.com%3A1337","udp%3A%2F%2Ftracker.coppersurfer.tk%3A6969","udp%3A%2F%2Fexodus.desync.com%3A6969"],"infoHash":"1b966a6e37272da2c55af9f71b66f43e7fcfceaa","infoHashBuffer":{"type":"Buffer","data":[27,150,106,110,55,39,45,162,197,90,249,247,27,102,244,62,127,207,206,170]},"announce":[],"urlList":[]}}